<svg version="1.2" xmlns="http://www.w3.org/2000/svg" viewBox="0 0 91 88" width="91" height="88"><defs><clipPath clipPathUnits="userSpaceOnUse" id="cp1"><path d="m44 88c-24.33 0-44-19.67-44-44 0-24.33 19.67-44 44-44 24.33 0 44 19.67 44 44 0 24.33-19.67 44-44 44z"/></clipPath></defs><style>.a{fill:#252525}.b{fill:#2742fd}.c{fill:#f3970d}.d{fill:#f03d3f}</style><path fill-rule="evenodd" class="a" d="m122.8 68.7q-6.3 0-10.7-2.2-4.3-2.2-6.8-6.3-2.4-4.1-2.6-9.8 0-2.9 0-6.3 0-3.4 0-6.4 0.2-5.6 2.6-9.6 2.5-4 6.9-6.2 4.5-2.2 10.6-2.2 5 0 8.7 1.4 3.7 1.3 6.2 3.4 2.5 2 3.7 4.4 1.3 2.4 1.4 4.4 0.1 0.6-0.3 1-0.5 0.4-1.1 0.4h-7q-0.7 0-1.1-0.2-0.3-0.3-0.6-0.8-0.5-1.5-1.7-2.8-1.1-1.5-3.1-2.4-2-1-5.1-1-4.6 0-7.4 2.5-2.7 2.4-2.9 8.1-0.2 5.9 0 11.9 0.2 5.8 3 8.3 2.8 2.6 7.4 2.6 3.1 0 5.5-1.1 2.4-1.1 3.8-3.4 1.4-2.3 1.4-5.9v-2.2h-8.3q-0.7 0-1.1-0.4-0.5-0.5-0.5-1.3v-3.6q0-0.7 0.5-1.2 0.4-0.5 1.1-0.5h16.3q0.7 0 1.1 0.5 0.5 0.5 0.5 1.2v7.2q0 5.7-2.5 9.8-2.5 4.2-7.1 6.4-4.5 2.3-10.8 2.3zm39.5 0q-7.6 0-12-4.4-4.4-4.3-4.8-12.3 0-0.7 0-1.7 0-1.1 0-1.7 0.3-5.1 2.3-8.9 2.1-3.7 5.8-5.7 3.7-2 8.7-2 5.5 0 9.2 2.3 3.7 2.2 5.6 6.3 1.9 4 1.9 9.3v1.4q0 0.7-0.4 1.2-0.5 0.5-1.3 0.5h-22.5q0 0 0 0.2 0 0.2 0 0.3 0 2.4 0.9 4.4 0.8 2 2.5 3.2 1.7 1.3 4 1.3 1.9 0 3.2-0.6 1.3-0.6 2.1-1.3 0.8-0.8 1.1-1.3 0.7-0.8 1-0.9 0.4-0.2 1.2-0.2h5.8q0.7 0 1.1 0.4 0.5 0.4 0.4 1-0.1 1.1-1.2 2.7-1 1.5-3 3-1.9 1.5-4.9 2.5-2.9 1-6.7 1zm-7.5-21.4h15v-0.2q0-2.7-0.9-4.7-0.9-1.9-2.6-3.1-1.7-1.2-4-1.2-2.4 0-4.1 1.2-1.7 1.2-2.6 3.1-0.8 2-0.8 4.7zm43.2 20.7q-4 0-6.8-1.4-2.8-1.5-4.2-4.2-1.3-2.9-1.3-7.1v-15.5h-5.4q-0.7 0-1.2-0.4-0.4-0.5-0.4-1.2v-3.9q0-0.7 0.4-1.2 0.5-0.5 1.2-0.5h5.4v-11.3q0-0.6 0.4-1.1 0.4-0.5 1.2-0.5h5.5q0.7 0 1.2 0.5 0.4 0.5 0.4 1.1v11.3h8.5q0.7 0 1.2 0.5 0.3 0.3 0.4 0.7 0.1-0.4 0.4-0.7 0.4-0.5 1-0.5h5.5q0.8 0 1.2 0.4 0.4 0.5 0.6 0.9l9.1 22.3 9.3-22.3q0.2-0.5 0.6-0.9 0.4-0.4 1.2-0.4h5.5q0.5 0 0.9 0.4 0.5 0.5 0.5 1 0 0.4-0.3 1.1l-19.2 44.5q-0.3 0.6-0.7 0.9-0.4 0.4-1.2 0.4h-5.4q-0.5 0-0.9-0.4-0.4-0.4-0.4-0.9 0-0.3 0-0.6 0-0.2 0.2-0.5l5.3-12.6-13-30.8q-0.1-0.2-0.1-0.3v3.4q0 0.7-0.5 1.2-0.5 0.4-1.2 0.4h-8.5v14.8q0 2.8 1 4.4 1 1.5 3.5 1.5h4.6q0.7 0 1.2 0.5 0.5 0.5 0.5 1.1v4.3q0 0.6-0.5 1.1-0.5 0.5-1.2 0.5zm58.5 0.7q-5.5 0-9.2-1.9-3.7-1.9-5.6-5.4-1.9-3.5-2.2-8.1-0.1-1.2-0.1-3 0-1.8 0.1-3 0.3-4.7 2.2-8.1 2.1-3.4 5.7-5.3 3.8-1.9 9.1-1.9 5.3 0 9 1.9 3.7 1.9 5.7 5.3 2 3.4 2.3 8.1 0 1.2 0 3 0 1.8 0 3-0.3 4.6-2.3 8.1-1.9 3.5-5.6 5.4-3.7 1.9-9.1 1.9zm0-6.8q3.6 0 5.6-2.2 1.9-2.3 2.1-6.7 0.1-1.1 0.1-2.7 0-1.6-0.1-2.6-0.2-4.4-2.1-6.7-2-2.3-5.6-2.3-3.6 0-5.6 2.3-2 2.3-2.2 6.7 0 1 0 2.6 0 1.6 0 2.7 0.2 4.4 2.2 6.7 2 2.2 5.6 2.2zm36.1 6.8q-5.4 0-9.1-1.9-3.7-1.9-5.7-5.4-1.9-3.5-2.2-8.1 0-1.2 0-3 0-1.8 0-3 0.3-4.7 2.3-8.1 2-3.4 5.7-5.3 3.7-1.9 9-1.9 5.3 0 9 1.9 3.8 1.9 5.7 5.3 2.1 3.4 2.3 8.1 0.1 1.2 0.1 3 0 1.8-0.1 3-0.2 4.6-2.2 8.1-1.9 3.5-5.6 5.4-3.7 1.9-9.2 1.9zm0-6.8q3.6 0 5.6-2.2 2-2.3 2.2-6.7 0.1-1.1 0.1-2.7 0-1.6-0.1-2.6-0.2-4.4-2.2-6.7-2-2.3-5.6-2.3-3.6 0-5.5 2.3-2 2.3-2.2 6.7-0.1 1-0.1 2.6 0 1.6 0.1 2.7 0.2 4.4 2.2 6.7 1.9 2.2 5.5 2.2zm36.3 6.1q-4.1 0-6.9-1.4-2.8-1.5-4.1-4.2-1.4-2.9-1.4-7.1v-15.5h-5.4q-0.6 0-1.1-0.4-0.5-0.5-0.5-1.2v-3.9q0-0.7 0.5-1.2 0.5-0.5 1.1-0.5h5.4v-11.3q0-0.6 0.4-1.1 0.5-0.5 1.2-0.5h5.5q0.7 0 1.2 0.5 0.5 0.5 0.5 1.1v11.3h8.5q0.7 0 1.1 0.5 0.5 0.5 0.5 1.2v3.9q0 0.7-0.5 1.2-0.4 0.4-1.1 0.4h-8.5v14.8q0 2.8 0.9 4.4 1 1.5 3.5 1.5h4.7q0.7 0 1.1 0.5 0.5 0.5 0.5 1.1v4.3q0 0.6-0.5 1.1-0.4 0.5-1.1 0.5zm24.3 0.7q-7.5 0-12-4.4-4.4-4.3-4.7-12.4-0.1-0.6-0.1-1.7 0-1 0.1-1.7 0.3-5.1 2.3-8.8 2.1-3.7 5.8-5.7 3.6-2 8.6-2 5.5 0 9.3 2.3 3.7 2.2 5.6 6.3 1.9 4 1.9 9.3v1.4q0 0.7-0.5 1.2-0.4 0.5-1.2 0.5h-22.6q0 0 0 0.2 0 0.2 0 0.3 0.1 2.4 0.9 4.4 0.9 2 2.5 3.2 1.7 1.3 4 1.3 1.9 0 3.2-0.6 1.3-0.6 2.1-1.4 0.9-0.7 1.2-1.2 0.6-0.8 1-0.9 0.4-0.2 1.1-0.2h5.9q0.6 0 1 0.4 0.5 0.4 0.5 1-0.1 1.1-1.2 2.6-1 1.6-3 3.1-2 1.5-5 2.5-2.9 1-6.7 1zm-7.5-21.4h15.1v-0.2q0-2.7-0.9-4.7-0.9-1.9-2.6-3.1-1.7-1.2-4.1-1.2-2.4 0-4.1 1.2-1.7 1.2-2.6 3.1-0.8 2-0.8 4.7zm42.7 21.4q-4.9 0-8.6-1.9-3.7-1.8-5.8-5.3-2-3.5-2.2-8.5-0.1-1-0.1-2.6 0-1.7 0.1-2.8 0.2-5 2.2-8.4 2.1-3.6 5.8-5.4 3.7-1.8 8.6-1.8 4.4 0 7.5 1.2 3 1.2 5 3 2 1.9 2.9 3.9 1 2 1.1 3.6 0.1 0.8-0.5 1.2-0.5 0.4-1.1 0.4h-6q-0.7 0-1.1-0.3-0.3-0.3-0.7-1-1-2.7-2.7-3.8-1.6-1.2-4.2-1.2-3.4 0-5.5 2.2-1.9 2.1-2.1 6.7-0.1 2.6 0 4.8 0.2 4.7 2.1 6.8 2.1 2.1 5.5 2.1 2.6 0 4.3-1.1 1.6-1.1 2.6-3.9 0.4-0.6 0.7-1 0.4-0.3 1.1-0.3h6q0.6 0 1.1 0.5 0.6 0.4 0.5 1.1-0.1 1.2-0.7 2.8-0.5 1.5-1.8 3.1-1.2 1.6-3.1 2.9-1.9 1.3-4.7 2.2-2.6 0.8-6.2 0.8zm21.2-0.7q-0.7 0-1.1-0.5-0.5-0.5-0.5-1.1v-45.1q0-0.6 0.5-1.1 0.4-0.5 1.1-0.5h6.1q0.7 0 1.1 0.5 0.5 0.5 0.5 1.1v15.5q1.8-2.1 4.5-3.5 2.6-1.3 6.5-1.3 4.2 0 7.2 1.9 3.1 1.8 4.8 5.2 1.7 3.4 1.7 8.2v19.1q0 0.6-0.4 1.1-0.5 0.5-1.2 0.5h-6.1q-0.7 0-1.2-0.5-0.4-0.5-0.4-1.1v-18.7q0-4-2-6.2-1.9-2.3-5.6-2.3-3.5 0-5.7 2.3-2.1 2.2-2.1 6.2v18.7q0 0.6-0.5 1.1-0.4 0.5-1.1 0.5z"/><g clip-path="url(#cp1)"><path class="b" d="m40 68.6c-4.8-0.9-9-3.1-12.6-6.6-4.8-4.8-7.2-10.8-7.2-18.1 0-7.3 2.4-13.2 7.2-18 3.6-3.6 7.8-5.8 12.6-6.6v-19.3c-10.4 1-19.4 5.2-26.9 12.5-8.7 8.5-13.1 19.1-13.1 31.4 0 12.4 4.4 22.9 13.1 31.4 7.5 7.3 16.5 11.5 26.9 12.5z"/><path class="c" d="m88.3 40.4l-0.7-4h-39.6v18.8h19.3c-1.2 3.5-3.2 6.4-6 8.7-3.7 2.9-8 4.5-13.3 5v19.1c12-0.6 22-4.8 29.7-12.5 7.5-7.2 11.3-16.8 11.3-28.5q0-3.2-0.7-6.6z"/><path class="d" d="m86 0h-37.9v28.7h37.9z"/></g></svg>